<svg width="42" height="42" viewBox="0 0 42 42" fill="none" xmlns="http://www.w3.org/2000/svg">
<path d="M16.2981 8.11268L13.5632 5.39709L16.4907 2.20002H28.0464L31.5708 6.05191H37.6761C39.7946 6.05191 41.528 7.78527 41.528 9.90381V33.0152C41.528 33.0974 41.5139 33.1797 41.4978 33.2739C41.4951 33.29 41.4923 33.3065 41.4895 33.3233L37.6761 29.4907V9.90381H29.876L26.3515 6.05191H18.1855L16.2981 8.11268ZM38.6198 41.316L34.1516 36.8671H6.86094C4.7424 36.8671 3.00905 35.1337 3.00905 33.0152V9.90381C3.00905 8.7675 3.52905 7.74675 4.31869 7.03415L0.466797 3.18225L3.20164 0.466667L41.3354 38.6004L38.6198 41.316ZM16.8566 19.5721C16.6448 20.1691 16.4907 20.7854 16.4907 21.4595C16.4907 24.6566 19.0714 27.2373 22.2685 27.2373C22.9426 27.2373 23.5589 27.0833 24.1559 26.8714L16.8566 19.5721ZM30.2997 33.0152L27.0641 29.7796C25.6582 30.6077 24.0211 31.0892 22.2685 31.0892C16.9529 31.0892 12.6388 26.7751 12.6388 21.4595C12.6388 19.7069 13.1203 18.0698 13.9484 16.6639L7.18835 9.90381H6.86094V33.0152H30.2997ZM27.6804 19.495L31.6671 23.4817C31.8212 22.8269 31.8983 22.1528 31.8983 21.4595C31.8983 16.1439 27.5841 11.8298 22.2685 11.8298C21.5752 11.8298 20.9011 11.9068 20.227 12.0609L24.2137 16.0476C25.8315 16.6254 27.1026 17.8965 27.6804 19.495Z" fill="#FFBB00"/>
<path d="M16.2981 8.11268L13.5632 5.39709L16.4907 2.20002H28.0464L31.5708 6.05191H37.6761C39.7946 6.05191 41.528 7.78527 41.528 9.90381V33.0152C41.528 33.0974 41.5139 33.1797 41.4978 33.2739C41.4951 33.29 41.4923 33.3065 41.4895 33.3233L37.6761 29.4907V9.90381H29.876L26.3515 6.05191H18.1855L16.2981 8.11268ZM38.6198 41.316L34.1516 36.8671H6.86094C4.7424 36.8671 3.00905 35.1337 3.00905 33.0152V9.90381C3.00905 8.7675 3.52905 7.74675 4.31869 7.03415L0.466797 3.18225L3.20164 0.466667L41.3354 38.6004L38.6198 41.316ZM16.8566 19.5721C16.6448 20.1691 16.4907 20.7854 16.4907 21.4595C16.4907 24.6566 19.0714 27.2373 22.2685 27.2373C22.9426 27.2373 23.5589 27.0833 24.1559 26.8714L16.8566 19.5721ZM30.2997 33.0152L27.0641 29.7796C25.6582 30.6077 24.0211 31.0892 22.2685 31.0892C16.9529 31.0892 12.6388 26.7751 12.6388 21.4595C12.6388 19.7069 13.1203 18.0698 13.9484 16.6639L7.18835 9.90381H6.86094V33.0152H30.2997ZM27.6804 19.495L31.6671 23.4817C31.8212 22.8269 31.8983 22.1528 31.8983 21.4595C31.8983 16.1439 27.5841 11.8298 22.2685 11.8298C21.5752 11.8298 20.9011 11.9068 20.227 12.0609L24.2137 16.0476C25.8315 16.6254 27.1026 17.8965 27.6804 19.495Z" stroke="black"/>
</svg>
