<svg width="85" height="53" viewBox="0 0 85 53" fill="none" xmlns="http://www.w3.org/2000/svg">
<path d="M17.5153 0C13.9666 0 10.6888 1.7702 8.7152 4.71965L1.32817 15.7357C0.458811 17.0346 -0.00351048 18.5622 4.56284e-05 20.1241V37.6804C-0.00485203 38.8567 0.384658 40.001 1.10662 40.9311C1.82859 41.8612 2.84156 42.5238 3.98442 42.8134L10.8747 44.5545C11.3703 46.9361 12.6718 49.0753 14.5609 50.6131C16.4501 52.1508 18.8119 52.9936 21.25 53C26.1694 53 30.276 49.6054 31.4607 45.05H56.1956C57.3803 49.6054 61.4869 53 66.4063 53C71.3256 53 75.4322 49.6054 76.6169 45.05H79.6875C82.5934 45.05 85 42.6491 85 39.75V30.0616C84.9975 27.6995 84.2038 25.406 82.7451 23.5455C81.2863 21.685 79.2462 20.3642 76.9489 19.7929L62.5866 16.1491L52.2113 3.8107C51.2187 2.6192 49.9756 1.66016 48.57 1.0016C47.1644 0.34304 45.6307 0.00108995 44.0778 0H17.5153ZM17.5153 5.3H29.2188V15.9H7.63676L13.1166 7.7009V7.61875C13.5979 6.89761 14.252 6.30781 15.0197 5.90288C15.7874 5.49795 16.6443 5.29072 17.5127 5.3H17.5153ZM34.5313 5.3H44.0778C45.653 5.3 47.1378 5.9943 48.1445 7.20535L55.4492 15.9H34.5313V5.3ZM5.31254 21.2H60.7617L75.7031 24.9259C76.8497 25.2097 77.8667 25.8711 78.5897 26.8031C79.3128 27.7351 79.6995 28.8831 79.6875 30.0616V39.75H76.6169C75.4322 35.1947 71.3256 31.8 66.4063 31.8C61.4869 31.8 57.3803 35.1947 56.1956 39.75H31.4607C30.276 35.1947 26.1694 31.8 21.25 31.8C16.5405 31.8 12.5854 34.9058 11.2068 39.1697L5.31254 37.683V21.2ZM21.25 37.1C24.2171 37.1 26.5625 39.44 26.5625 42.4C26.5625 45.3601 24.2171 47.7 21.25 47.7C18.283 47.7 15.9375 45.3601 15.9375 42.4C15.9375 39.44 18.283 37.1 21.25 37.1ZM66.4063 37.1C69.3733 37.1 71.7188 39.44 71.7188 42.4C71.7188 45.3601 69.3733 47.7 66.4063 47.7C63.4392 47.7 61.0938 45.3601 61.0938 42.4C61.0938 39.44 63.4392 37.1 66.4063 37.1Z" fill="#3A3636"/>
</svg>
